<svg width="40" height="64" viewBox="0 0 40 64" fill="none" xmlns="http://www.w3.org/2000/svg">
<path d="M22.7207 20.5505C26.1191 20.9791 29.0433 22.8968 30.8385 25.6266C31.6175 26.7659 32.9272 27.5217 34.4062 27.5217C36.7772 27.5217 38.7079 25.5928 38.7079 23.2239C38.7079 22.4907 38.5272 21.8026 38.1998 21.2047C38.0417 20.9566 37.895 20.7197 37.7256 20.4941C37.7143 20.4715 37.703 20.449 37.6917 20.4377C34.4966 15.8691 29.4498 12.6881 23.6352 12C23.7143 12.6994 23.7481 13.4213 23.7481 14.1545C23.7594 16.388 23.3868 18.5426 22.7207 20.5505Z" fill="url(#paint0_linear_439_79797)"/>
<path d="M34.6437 36.3279H34.1921C32.8147 36.3955 31.6179 37.1062 30.8728 38.1778C30.8615 38.1891 30.8615 38.2004 30.8389 38.2229C28.784 41.3363 25.2502 43.4006 21.2421 43.4006C15.405 43.4006 10.584 39.0464 9.85009 33.4062C7.84041 34.0718 5.68395 34.4328 3.44845 34.4328C2.71458 34.4328 1.9807 34.3989 1.29199 34.32C2.47748 44.2692 10.9565 51.9962 21.2308 51.9962C28.0389 51.9962 34.0566 48.6121 37.6809 43.4345C37.6921 43.4119 37.7034 43.3893 37.726 43.3781C37.726 43.3668 37.7373 43.3668 37.7373 43.3555C37.8954 43.1299 38.0534 42.9043 38.1889 42.6674C38.5163 42.0583 38.697 41.3702 38.697 40.6369C38.7196 38.3245 36.9131 36.4407 34.6437 36.3279Z" fill="url(#paint1_linear_439_79797)"/>
<path d="M9.50052 32.8348C15.4393 30.8269 20.1473 26.123 22.157 20.1895C22.8457 18.1703 23.207 16.0045 23.207 13.7597C23.207 13.1619 23.1844 12.5753 23.128 12L1.30371 33.8161C1.87952 33.8613 2.46662 33.8951 3.06501 33.8951C5.31179 33.8951 7.47954 33.5229 9.50052 32.8348Z" fill="#A800F6"/>
<defs>
<linearGradient id="paint0_linear_439_79797" x1="36.4952" y1="27.152" x2="23.0301" y2="12.5663" gradientUnits="userSpaceOnUse">
<stop stop-color="#F700B4"/>
<stop offset="0.51" stop-color="#D000D4"/>
<stop offset="1" stop-color="#A800F6"/>
</linearGradient>
<linearGradient id="paint1_linear_439_79797" x1="30.4656" y1="50.7326" x2="8.85725" y2="27.3347" gradientUnits="userSpaceOnUse">
<stop stop-color="#F700B4"/>
<stop offset="0.51" stop-color="#D000D4"/>
<stop offset="1" stop-color="#A800F6"/>
</linearGradient>
</defs>
</svg>