<svg xmlns="http://www.w3.org/2000/svg" version="1.1" width="113" height="113">
<path d="M0 0 C14.85 0 29.7 0 45 0 C45 37.29 45 74.58 45 113 C29.49 113 13.98 113 -2 113 C-2 112.67 -2 112.34 -2 112 C-1.12859375 111.78085938 -0.2571875 111.56171875 0.640625 111.3359375 C15.86211999 107.28346156 29.36261252 101.13213018 37.96484375 87.234375 C39.71516392 83.45632542 39.68738771 81.12432625 39 77 C36.90637823 73.56047852 34.88092169 71.21971825 31 70 C27.13796493 69.57868708 24.8660368 69.48037792 21.5 71.5 C19.4405811 73.5594189 17.65625235 75.63155309 15.8125 77.875 C11.28785983 83.18351424 5.01601265 87.8090901 -2 89 C-10.51893238 89.64714181 -17.63129993 89.56089753 -25 85 C-25.69738281 84.5875 -26.39476562 84.175 -27.11328125 83.75 C-34.79122316 78.66029086 -39.06939228 70.88079551 -41 62 C-42.5159375 62.495 -42.5159375 62.495 -44.0625 63 C-50.5500484 64.66588042 -57.35388026 64.15576843 -64 64 C-64.495 64.99 -64.495 64.99 -65 66 C-65 64.35 -65 62.7 -65 61 C-63.63681641 61.08701172 -63.63681641 61.08701172 -62.24609375 61.17578125 C-46.78165554 61.73091493 -33.75868433 57.16057226 -21.7578125 47.125 C-13.69758385 39.58184262 -9.24907525 30.43036465 -6 20 C-5.80148438 19.38382813 -5.60296875 18.76765625 -5.3984375 18.1328125 C-4.81232557 14.99538981 -4.90799008 11.93707185 -4.9375 8.75 C-4.94652344 7.48671875 -4.95554688 6.2234375 -4.96484375 4.921875 C-4.97644531 3.95765625 -4.98804688 2.9934375 -5 2 C-4.34 2 -3.68 2 -3 2 C-2.77610782 4.52029979 -2.57057922 7.03997257 -2.375 9.5625 C-2.31054688 10.26697266 -2.24609375 10.97144531 -2.1796875 11.69726562 C-1.81650362 16.62294699 -2.39077591 20.32587966 -4 25 C-3.443125 25.07476563 -2.88625 25.14953125 -2.3125 25.2265625 C7.1171065 26.85125821 12.54381744 32.01807554 18.45703125 39.265625 C20.42101435 41.47324145 22.11105801 42.87181923 25.0859375 43.30078125 C29.85597478 43.32520124 33.20112257 43.22328994 37 40 C39.24098299 37.11873616 39.60740407 33.82520594 39.5 30.20703125 C38.45032904 25.57371801 35.1797679 22.37517264 32 19 C31.35933594 18.30648438 30.71867187 17.61296875 30.05859375 16.8984375 C21.82499135 8.80544691 11.10105411 4.52686978 0 2 C0 1.34 0 0.68 0 0 Z " fill="#FDFAFD" transform="translate(68,0)"/>
<path d="M0 0 C22.44 0 44.88 0 68 0 C67.34 0.33 66.68 0.66 66 1 C66 5.29 66 9.58 66 14 C65.67 14 65.34 14 65 14 C65 10.04 65 6.08 65 2 C58.53110137 7.47544324 52.54034677 13.35155606 46.58510208 19.37029839 C44.88127002 21.09172486 43.17374276 22.80940833 41.46517944 24.52613831 C36.61421441 29.40140003 31.76915667 34.28250304 26.92822266 39.16772461 C23.95359297 42.16905492 20.97417544 45.1655617 17.99171066 48.1591053 C16.85827137 49.29876235 15.72673436 50.44031452 14.59712601 51.58376884 C13.02707704 53.17292334 11.45106599 54.7559241 9.87353516 56.33764648 C8.9783316 57.24030746 8.08312805 58.14296844 7.16079712 59.07298279 C5 61 5 61 3 61 C7.77735272 79.03133571 14.17175557 93.84573042 30.39453125 104.53515625 C37.46184518 108.50853365 45.098979 110.44570079 53 112 C53 112.33 53 112.66 53 113 C35.51 113 18.02 113 0 113 C0 75.71 0 38.42 0 0 Z " fill="#FEFDFE" transform="translate(0,0)"/>
<path d="M0 0 C0.18433594 0.60585937 0.36867188 1.21171875 0.55859375 1.8359375 C3.09775775 9.17130016 7.00465591 14.99545476 13 20 C15.52588197 20.72619293 15.52588197 20.72619293 18 21 C19.7015625 21.7734375 19.7015625 21.7734375 21.4375 22.5625 C29.11979224 25.56225221 38.06119835 24.39435043 46 23 C46.99 23 47.98 23 49 23 C51.07160338 21.74195187 51.07160338 21.74195187 53.1875 20 C53.98671875 19.36835937 54.7859375 18.73671875 55.609375 18.0859375 C57.92784692 16.0629571 59.89685143 13.92280348 61.9375 11.625 C65.69954074 7.68815737 68.74392971 7.06641133 74.09375 6.9375 C74.7228125 6.958125 75.351875 6.97875 76 7 C80.56713781 15.9204947 80.56713781 15.9204947 79.0625 21.4375 C73.33353281 32.64416389 62.52703603 39.81105134 51 44 C46.6961511 45.16952416 42.37640027 46.14420154 38 47 C38 47.33 38 47.66 38 48 C21.27203656 48.71351503 8.68303405 46.06541375 -4.4765625 34.8984375 C-9.78967936 29.86963458 -13.59902028 24.45628609 -17 18 C-17.37898438 17.360625 -17.75796875 16.72125 -18.1484375 16.0625 C-19.25292482 13.38741145 -19.22985919 11.19677591 -19.1875 8.3125 C-19.18105469 7.33925781 -19.17460937 6.36601563 -19.16796875 5.36328125 C-19 3 -19 3 -18 2 C-15.35286416 1.59838581 -12.72046899 1.24763467 -10.0625 0.9375 C-8.9497168 0.80118164 -8.9497168 0.80118164 -7.81445312 0.66210938 C-2.32342575 0 -2.32342575 0 0 0 Z " fill="#D701CB" transform="translate(26,64)"/>
<path d="M0 0 C0.90872803 15.42313413 -3.14103097 28.43375756 -13.25 40.125 C-20.95281511 48.31003418 -28.41851388 53.17392592 -39 57 C-40.11375 57.433125 -41.2275 57.86625 -42.375 58.3125 C-48.21546359 59.42017413 -54.07448145 59.1479325 -60 59 C-58 56 -58 56 -55.85229492 55.26489258 C-51.52050519 53.34389603 -48.67081441 50.0983719 -45.36328125 46.76171875 C-44.64262985 46.04393753 -43.92197845 45.32615631 -43.17948914 44.58662415 C-41.66048306 43.06965616 -40.14524538 41.54890656 -38.63354492 40.0246582 C-36.32078514 37.69584266 -33.99247553 35.38344777 -31.66210938 33.07226562 C-30.18653715 31.59471093 -28.71189584 30.11622586 -27.23828125 28.63671875 C-26.54245438 27.94696457 -25.8466275 27.25721039 -25.12971497 26.54655457 C-21.78634444 23.15412017 -19.55730432 20.57025354 -18 16 C-16.3359375 13.96362305 -16.3359375 13.96362305 -14.375 12.01171875 C-13.66859375 11.30595703 -12.9621875 10.60019531 -12.234375 9.87304688 C-11.49703125 9.15181641 -10.7596875 8.43058594 -10 7.6875 C-8.89398438 6.57665039 -8.89398438 6.57665039 -7.765625 5.44335938 C-2.26707949 0 -2.26707949 0 0 0 Z " fill="#A705F5" transform="translate(64,3)"/>
<path d="M0 0 C2.0633113 0.62231644 4.1256169 1.24796785 6.1875 1.875 C7.33605469 2.22304687 8.48460938 2.57109375 9.66796875 2.9296875 C12.51039741 3.84273023 15.23105426 4.8924217 18 6 C18.66128906 6.12117187 19.32257813 6.24234375 20.00390625 6.3671875 C26.97074798 8.57585357 33.44283248 16.83424297 37 23 C37.97567552 27.22792725 36.07892013 30.46716179 34.265625 34.23046875 C32.32416699 36.94491468 30.22432221 37.77847867 26.9921875 38.36328125 C22.64512632 38.25901594 20.59505113 37.56238512 17.3671875 34.51171875 C15.65119471 32.53704645 13.97939425 30.52289205 12.359375 28.46875 C9.73337219 25.72101196 8.64741978 25.47446111 5 25 C3.26953125 23.84375 3.26953125 23.84375 1.8125 22.5 C-0.71758834 20.03288355 -0.71758834 20.03288355 -3 19 C-2.69277348 16.02020106 -2.37948528 13.04126241 -2.0625 10.0625 C-1.97548828 9.21236328 -1.88847656 8.36222656 -1.79882812 7.48632812 C-1.71181641 6.67744141 -1.62480469 5.86855469 -1.53515625 5.03515625 C-1.456604 4.2862915 -1.37805176 3.53742676 -1.29711914 2.76586914 C-1 1 -1 1 0 0 Z " fill="#D301CF" transform="translate(70,4)"/>
<path d="M0 0 C8.41970467 1.10235411 15.44003997 4.23186945 23 8 C22.34 8.66 21.68 9.32 21 10 C20.19175781 9.65066406 19.38351563 9.30132812 18.55078125 8.94140625 C17.48214844 8.48636719 16.41351563 8.03132812 15.3125 7.5625 C14.25675781 7.11003906 13.20101562 6.65757812 12.11328125 6.19140625 C9.38027471 5.14552545 6.87957663 4.46479252 4 4 C3.86722656 5.04800781 3.73445313 6.09601562 3.59765625 7.17578125 C3.41942765 8.55470778 3.24103359 9.93361293 3.0625 11.3125 C2.97548828 12.00279297 2.88847656 12.69308594 2.79882812 13.40429688 C2.40789865 16.40142288 1.9584996 19.12450119 1 22 C2.98 22.66 4.96 23.32 7 24 C6.67 24.66 6.34 25.32 6 26 C3.36 25.34 0.72 24.68 -2 24 C-1.84660156 23.02933594 -1.69320312 22.05867188 -1.53515625 21.05859375 C-0.91790015 16.73780106 -0.66519605 12.41858682 -0.4375 8.0625 C-0.39431641 7.28326172 -0.35113281 6.50402344 -0.30664062 5.70117188 C-0.20171923 3.80092883 -0.1004755 1.90048331 0 0 Z " fill="#B81DE6" transform="translate(66,1)"/>
<path d="M0 0 C0.44730469 0.95261719 0.89460938 1.90523437 1.35546875 2.88671875 C1.9655978 4.15390985 2.57630585 5.42082228 3.1875 6.6875 C3.62545898 7.62625977 3.62545898 7.62625977 4.07226562 8.58398438 C6.14425987 12.8393704 8.5033404 15.73225428 12 19 C12.66 19.99 13.32 20.98 14 22 C10.42080782 22 10.0707266 21.50269328 7.625 19.0625 C2.93269477 14.1609837 -1 8.92475371 -1 2 C-1.7425 2.309375 -2.485 2.61875 -3.25 2.9375 C-8.44702225 4.40998964 -13.62487263 4.66949055 -19 5 C-19 7.31 -19 9.62 -19 12 C-19.99 12.495 -19.99 12.495 -21 13 C-22.19287411 9.12315913 -23 6.08378077 -23 2 C-21.95199219 1.93941406 -20.90398438 1.87882812 -19.82421875 1.81640625 C-18.44529952 1.73198262 -17.06639395 1.64733553 -15.6875 1.5625 C-14.99720703 1.52318359 -14.30691406 1.48386719 -13.59570312 1.44335938 C-8.89921542 1.14841087 -4.70311848 -0.12711131 0 0 Z " fill="#B516E8" transform="translate(27,62)"/>
<path d="M0 0 C0.495 1.485 0.495 1.485 1 3 C-10.55 14.55 -22.1 26.1 -34 38 C-34.99 37.67 -35.98 37.34 -37 37 C-24.79 24.79 -12.58 12.58 0 0 Z " fill="#AC30F6" transform="translate(44,21)"/>
<path d="M0 0 C0.33 0 0.66 0 1 0 C1.41776675 6.05761794 1.12264203 9.19025097 -3 14 C-7.19910222 16.5705196 -11.20188657 16.67432946 -16 16 C-21.277562 12.98425028 -27.06165768 6.81502696 -29 1 C-25.3442781 2.47681481 -23.68438929 4.46462363 -21.3125 7.5625 C-18.45535068 10.88426987 -16.65399849 12.62158257 -12.25 13.1875 C-8.96868953 13.34684421 -6.69709402 12.92729844 -4 11 C-2.65182015 8.38038729 -2.65182015 8.38038729 -1.75 5.375 C-1.24726562 3.87066406 -1.24726562 3.87066406 -0.734375 2.3359375 C-0.49203125 1.56507812 -0.2496875 0.79421875 0 0 Z " fill="#E925BF" transform="translate(107,28)"/>
<path d="M0 0 C5.7408 4.416 5.7408 4.416 6.5625 9.4375 C6.4703013 16.68168336 0.62264062 22.31603865 -4.171875 27.22265625 C-7.35697351 30.13833854 -9.67354026 32.21511129 -14 33 C-11.62645557 29.73637641 -9.0737986 27.14311449 -6 24.5625 C-1.71882211 20.87925198 1.29389953 17.47135164 2.875 11.9375 C3.06994323 7.35633415 1.49972012 4.74958017 -1 1 C-0.67 0.67 -0.34 0.34 0 0 Z " fill="#F01FB9" transform="translate(102,71)"/>
<path d="M0 0 C0.66 0.66 1.32 1.32 2 2 C1.67 2.33 1.34 2.66 1 3 C-0.11375 2.95875 -1.2275 2.9175 -2.375 2.875 C-7.6873635 3.42718115 -10.46862568 7.07631352 -13.91137695 10.76025391 C-17.65648843 14.75338168 -21.12930577 17.52037385 -26 20 C-26.66 19.67 -27.32 19.34 -28 19 C-25.90508334 16.79516488 -23.7405852 15.05092847 -21.25 13.3125 C-17.4474689 10.51837493 -14.518652 7.38153072 -11.54296875 3.734375 C-7.97620221 -0.27485118 -5.14186455 -0.37395379 0 0 Z " fill="#E31EC4" transform="translate(99,69)"/>
<path d="M0 0 C-0.33 0.99 -0.66 1.98 -1 3 C-5.17476889 5.06592822 -9.59570791 6.4958441 -14 8 C-14.72058594 8.25265625 -15.44117187 8.5053125 -16.18359375 8.765625 C-22.30689927 10.60920086 -28.66919027 10.17371124 -35 10 C-35 9.67 -35 9.34 -35 9 C-31.7 8.67 -28.4 8.34 -25 8 C-25 7.67 -25 7.34 -25 7 C-23.64068359 6.74476562 -23.64068359 6.74476562 -22.25390625 6.484375 C-15.68332244 5.17721124 -9.67591926 3.78283918 -3.671875 0.76953125 C-2 0 -2 0 0 0 Z " fill="#F122B9" transform="translate(88,103)"/>
</svg>