<svg width="21" viewBox="0 0 56 61" fill="none" xmlns="http://www.w3.org/2000/svg">
<path d="M6.88914 27.9355V16.6443C6.88914 16.1687 7.18172 15.7504 7.60457 15.6284L15.3966 13.3503C15.8331 13.2233 16.2606 13.5793 16.2606 14.0723V25.3636C16.2606 25.8391 15.968 26.2574 15.5451 26.3794L7.75314 28.6575C7.31657 28.7845 6.88914 28.4285 6.88914 27.9355Z" fill="#19A5F6"/>
<path d="M17.424 24.8407V13.5495C17.424 13.0739 17.7166 12.6556 18.1394 12.5336L25.9314 10.2555C26.368 10.1285 26.7954 10.4845 26.7954 10.9775V22.2687C26.7954 22.7443 26.5029 23.1626 26.08 23.2846L18.288 25.5627C17.8514 25.6897 17.424 25.3337 17.424 24.8407Z" fill="#FF6634"/>
<path d="M17.3737 39.2392V27.948C17.3737 27.4724 17.6663 27.0541 18.0891 26.9321L25.8811 24.654C26.3177 24.527 26.7451 24.883 26.7451 25.376V36.6672C26.7451 37.1428 26.4526 37.5611 26.0297 37.6831L18.2377 39.9612C17.8011 40.0882 17.3737 39.7322 17.3737 39.2392Z" fill="#FCB93C"/>
<path d="M27.9657 36.1718V24.8805C27.9657 24.405 28.2583 23.9867 28.6811 23.8647L36.4731 21.5865C36.9097 21.4595 37.3371 21.8156 37.3371 22.3086V33.5998C37.3371 34.0753 37.0446 34.4936 36.6217 34.6156L28.8297 36.8938C28.3931 37.0208 27.9657 36.6647 27.9657 36.1718Z" fill="#13C2BB"/>
<path d="M27.9406 50.5329V39.2417C27.9406 38.7661 28.2331 38.3478 28.656 38.2258L36.448 35.9477C36.8846 35.8207 37.312 36.1767 37.312 36.6697V47.9609C37.312 48.4365 37.0194 48.8548 36.5966 48.9768L28.8046 51.2549C28.368 51.3819 27.9406 51.0259 27.9406 50.5329Z" fill="#FF6634"/>
<path d="M38.4571 33.1068V21.8156C38.4571 21.34 38.7497 20.9218 39.1726 20.7998L46.9646 18.5216C47.4011 18.3946 47.8286 18.7507 47.8286 19.2436V30.5349C47.8286 31.0104 47.536 31.4287 47.1131 31.5507L39.3211 33.8289C38.8846 33.9558 38.4571 33.5998 38.4571 33.1068Z" fill="#1F70CB"/>
</svg>
