<?xml version="1.0" encoding="UTF-8"?>
<svg id="katman_1" data-name="katman 1" xmlns="http://www.w3.org/2000/svg" viewBox="0 0 245 245">
  <defs>
    <style>
      .cls-1 {
        fill: #fff;
      }
    </style>
  </defs>
  <path class="cls-1" d="M32.14,113.2v-45.35c0-1.91,1.28-3.59,3.13-4.08l34.09-9.15c1.91-.51,3.78.92,3.78,2.9v45.35c0,1.91-1.28,3.59-3.13,4.08l-34.09,9.15c-1.91.51-3.78-.92-3.78-2.9Z"/>
  <path class="cls-1" d="M78.23,100.77v-45.35c0-1.91,1.28-3.59,3.13-4.08l34.09-9.15c1.91-.51,3.78.92,3.78,2.9v45.35c0,1.91-1.28,3.59-3.13,4.08l-34.09,9.15c-1.91.51-3.78-.92-3.78-2.9Z"/>
  <path class="cls-1" d="M78.01,158.6v-45.35c0-1.91,1.28-3.59,3.13-4.08l34.09-9.15c1.91-.51,3.78.92,3.78,2.9v45.35c0,1.91-1.28,3.59-3.13,4.08l-34.09,9.15c-1.91.51-3.78-.92-3.78-2.9Z"/>
  <path class="cls-1" d="M124.35,146.28v-45.35c0-1.91,1.28-3.59,3.13-4.08l34.09-9.15c1.91-.51,3.78.92,3.78,2.9v45.35c0,1.91-1.28,3.59-3.13,4.08l-34.09,9.15c-1.91.51-3.78-.92-3.78-2.9Z"/>
  <path class="cls-1" d="M124.24,203.96v-45.35c0-1.91,1.28-3.59,3.13-4.08l34.09-9.15c1.91-.51,3.78.92,3.78,2.9v45.35c0,1.91-1.28,3.59-3.13,4.08l-34.09,9.15c-1.91.51-3.78-.92-3.78-2.9Z"/>
  <path class="cls-1" d="M170.25,133.97v-45.35c0-1.91,1.28-3.59,3.13-4.08l34.09-9.15c1.91-.51,3.78.92,3.78,2.9v45.35c0,1.91-1.28,3.59-3.13,4.08l-34.09,9.15c-1.91.51-3.78-.92-3.78-2.9Z"/>
</svg>