<?xml version="1.0" encoding="UTF-8"?>
<svg id="katman_1" data-name="katman 1" xmlns="http://www.w3.org/2000/svg" viewBox="0 0 245 245">
  <defs>
    <style>
      .cls-1 {
        fill: #19a5f6;
      }

      .cls-2 {
        fill: #1f70cb;
      }

      .cls-3 {
        fill: #fcb93c;
      }

      .cls-4 {
        fill: #13c2bb;
      }

      .cls-5 {
        fill: #ff6634;
      }
    </style>
  </defs>
  <path class="cls-1" d="M30.14,112.2v-45.35c0-1.91,1.28-3.59,3.13-4.08l34.09-9.15c1.91-.51,3.78.92,3.78,2.9v45.35c0,1.91-1.28,3.59-3.13,4.08l-34.09,9.15c-1.91.51-3.78-.92-3.78-2.9Z"/>
  <path class="cls-5" d="M76.23,99.77v-45.35c0-1.91,1.28-3.59,3.13-4.08l34.09-9.15c1.91-.51,3.78.92,3.78,2.9v45.35c0,1.91-1.28,3.59-3.13,4.08l-34.09,9.15c-1.91.51-3.78-.92-3.78-2.9Z"/>
  <path class="cls-3" d="M76.01,157.6v-45.35c0-1.91,1.28-3.59,3.13-4.08l34.09-9.15c1.91-.51,3.78.92,3.78,2.9v45.35c0,1.91-1.28,3.59-3.13,4.08l-34.09,9.15c-1.91.51-3.78-.92-3.78-2.9Z"/>
  <path class="cls-4" d="M122.35,145.28v-45.35c0-1.91,1.28-3.59,3.13-4.08l34.09-9.15c1.91-.51,3.78.92,3.78,2.9v45.35c0,1.91-1.28,3.59-3.13,4.08l-34.09,9.15c-1.91.51-3.78-.92-3.78-2.9Z"/>
  <path class="cls-5" d="M122.24,202.96v-45.35c0-1.91,1.28-3.59,3.13-4.08l34.09-9.15c1.91-.51,3.78.92,3.78,2.9v45.35c0,1.91-1.28,3.59-3.13,4.08l-34.09,9.15c-1.91.51-3.78-.92-3.78-2.9Z"/>
  <path class="cls-2" d="M168.25,132.97v-45.35c0-1.91,1.28-3.59,3.13-4.08l34.09-9.15c1.91-.51,3.78.92,3.78,2.9v45.35c0,1.91-1.28,3.59-3.13,4.08l-34.09,9.15c-1.91.51-3.78-.92-3.78-2.9Z"/>
</svg>